<svg width="29" height="32" viewBox="0 0 29 32" fill="none" xmlns="http://www.w3.org/2000/svg">
<path d="M13.6582 21.534C13.6625 22.0863 14.1136 22.5305 14.6659 22.5263C15.2182 22.522 15.6624 22.0709 15.6582 21.5186L13.6582 21.534ZM15.2016 0.287472C14.8081 -0.10003 14.175 -0.0951505 13.7875 0.298372L7.47274 6.71119C7.08524 7.10471 7.09012 7.73786 7.48364 8.12536C7.87716 8.51287 8.51031 8.50799 8.89781 8.11446L14.5109 2.41418L20.2112 8.02727C20.6047 8.41477 21.2379 8.40989 21.6254 8.01637C22.0129 7.62285 22.008 6.9897 21.6145 6.6022L15.2016 0.287472ZM15.6582 21.5186L15.5 0.992301L13.5 1.00772L13.6582 21.534L15.6582 21.5186Z" fill="#FEFEF9"/>
<path d="M1 19V31H28V19" stroke="#FEFEF9" stroke-width="2" stroke-linecap="round" stroke-linejoin="round"/>
</svg>
