<svg width="183" height="38" viewBox="0 0 183 38" fill="none" xmlns="http://www.w3.org/2000/svg">
<path d="M47.8727 8.97316H61.3637V36.553H71.2438V8.97316H84.9881V0.149841H47.8727V8.97316Z" fill="#FEFEF9"/>
<path d="M44.6799 0.0749512H34.7107V36.553H44.6799V0.0749512Z" fill="#FEFEF9"/>
<path d="M0 0.0749512V36.553H9.96922V0.0749512H0Z" fill="#FEFEF9"/>
<path d="M25.0017 0.0749512L9.96906 36.553H20.2466L34.7036 0.0749512H30.7366H25.0017Z" fill="#FEFEF9"/>
<path d="M132.06 0.0749512H130.737H124.995L115.102 24.0873L105.208 0.0749512H99.4731H95.506H88.1744V36.553H98.1434V6.73327L109.963 36.553H120.24L132.06 6.73327V36.553H142.029V0.0749512H134.697H132.06Z" fill="#FEFEF9"/>
<path d="M173.272 18.8253C173.142 24.4352 169.36 28.2001 163.872 28.2001H163.666C160.713 28.1456 158.281 27.1993 156.63 25.4769C154.978 23.7544 154.129 21.2081 154.183 18.1854C154.119 16.9255 154.325 15.6664 154.786 14.4913C155.249 13.3163 155.956 12.2521 156.863 11.3691C157.77 10.4861 158.855 9.80452 160.046 9.36928C161.238 8.93411 162.509 8.75522 163.776 8.84459C165.038 8.80037 166.297 9.01173 167.475 9.46581C168.652 9.91989 169.725 10.6073 170.627 11.4862C171.541 12.4749 172.245 13.6357 172.698 14.9C173.151 16.1642 173.344 17.506 173.266 18.8457L173.272 18.8253ZM174.046 2.62876C170.995 0.87658 167.526 -0.0308815 164.002 0.00080213C163.086 0.00298184 162.171 0.0552959 161.261 0.157353C155.91 0.742917 151.607 2.96233 148.469 6.75448C145.523 10.3151 144.248 14.6587 144.577 20.0167C144.7 23.7273 146.036 27.2974 148.38 30.1881C152.148 34.7631 157.288 36.9485 164.625 37.0643H164.708H164.79L165.742 36.9418C167.021 36.7999 168.29 36.5725 169.538 36.2609C173.281 35.3317 176.625 33.2313 179.075 30.2698C181.46 27.2832 182.806 23.6094 182.912 19.7989C183.235 11.9899 180.254 6.18262 174.053 2.62876" fill="#FEFEF9"/>
</svg>
