<svg width="29" height="32" viewBox="0 0 29 32" fill="none" xmlns="http://www.w3.org/2000/svg">
<path d="M1 15C0.447715 15 0 15.4477 0 16C0 16.5523 0.447715 17 1 17V15ZM23.1357 16.7071C23.5262 16.3166 23.5262 15.6834 23.1357 15.2929L16.7717 8.92893C16.3812 8.53841 15.748 8.53841 15.3575 8.92893C14.967 9.31946 14.967 9.95262 15.3575 10.3431L21.0144 16L15.3575 21.6569C14.967 22.0474 14.967 22.6805 15.3575 23.0711C15.748 23.4616 16.3812 23.4616 16.7717 23.0711L23.1357 16.7071ZM1 17H22.4286V15H1V17Z" fill="#FEFEF9"/>
<path d="M10.6429 10.6429V1L27.7857 4.75V27.7857L10.6429 31V22.4286" stroke="#FEFEF9" stroke-width="2" stroke-linecap="round" stroke-linejoin="round"/>
</svg>
